<svg width="33" height="29" viewBox="0 0 33 29" fill="none" xmlns="http://www.w3.org/2000/svg">
<path d="M22.3337 23.25L25.2503 26.1667L31.0837 20.3333M16.5003 18.875H10.667C7.949 18.875 6.59 18.875 5.51801 19.319C4.08867 19.9111 2.95308 21.0467 2.36103 22.476C1.91699 23.548 1.91699 24.907 1.91699 27.625M21.6045 1.79902C23.7423 2.66438 25.2503 4.76025 25.2503 7.20833C25.2503 9.65642 23.7423 11.7523 21.6045 12.6176M18.6878 7.20833C18.6878 10.43 16.0762 13.0417 12.8545 13.0417C9.63283 13.0417 7.02116 10.43 7.02116 7.20833C7.02116 3.98667 9.63283 1.375 12.8545 1.375C16.0762 1.375 18.6878 3.98667 18.6878 7.20833Z" stroke="black" stroke-width="2" stroke-linecap="round" stroke-linejoin="round"/>
</svg>
