<svg width="35" height="35" viewBox="0 0 35 35" fill="none" xmlns="http://www.w3.org/2000/svg">
<rect width="35" height="35" fill="white"/>
<path d="M23.3332 26.25L26.2498 29.1667L32.0832 23.3333M17.4998 21.875H11.6665C8.94851 21.875 7.58951 21.875 6.51752 22.319C5.08819 22.9111 3.95259 24.0467 3.36054 25.476C2.9165 26.548 2.9165 27.907 2.9165 30.625M22.604 4.79902C24.7418 5.66438 26.2498 7.76025 26.2498 10.2083C26.2498 12.6564 24.7418 14.7523 22.604 15.6176M19.6873 10.2083C19.6873 13.43 17.0757 16.0417 13.854 16.0417C10.6323 16.0417 8.02067 13.43 8.02067 10.2083C8.02067 6.98667 10.6323 4.375 13.854 4.375C17.0757 4.375 19.6873 6.98667 19.6873 10.2083Z" stroke="black" stroke-width="2" stroke-linecap="round" stroke-linejoin="round"/>
</svg>
