<svg width="27" height="33" viewBox="0 0 27 33" fill="none" xmlns="http://www.w3.org/2000/svg">
<path d="M16.4163 2.30975V8.33346C16.4163 9.1502 16.4163 9.55857 16.5753 9.87053C16.7151 10.1449 16.9382 10.368 17.2126 10.5078C17.5246 10.6668 17.9329 10.6668 18.7497 10.6668H24.7734M16.4163 23.7917H7.66634M19.333 17.9584H7.66634M25.1663 13.5662V24.0834C25.1663 26.5336 25.1663 27.7587 24.6895 28.6946C24.27 29.5178 23.6008 30.1871 22.7775 30.6065C21.8417 31.0834 20.6166 31.0834 18.1663 31.0834H8.83301C6.38278 31.0834 5.15766 31.0834 4.2218 30.6065C3.39859 30.1871 2.7293 29.5178 2.30985 28.6946C1.83301 27.7587 1.83301 26.5336 1.83301 24.0834V8.91669C1.83301 6.46646 1.83301 5.24134 2.30985 4.30548C2.7293 3.48227 3.39859 2.81298 4.2218 2.39353C5.15766 1.91669 6.38278 1.91669 8.83301 1.91669H13.5168C14.5869 1.91669 15.122 1.91669 15.6255 2.03757C16.0719 2.14474 16.4986 2.32151 16.8901 2.56139C17.3316 2.83194 17.7099 3.21028 18.4666 3.96694L23.1161 8.61643C23.8728 9.3731 24.2511 9.75143 24.5216 10.1929C24.7615 10.5844 24.9383 11.0111 25.0455 11.4575C25.1663 11.9611 25.1663 12.4961 25.1663 13.5662Z" stroke="black" stroke-width="2" stroke-linecap="round" stroke-linejoin="round"/>
</svg>
