<svg width="19" height="20" viewBox="0 0 19 20" fill="none" xmlns="http://www.w3.org/2000/svg">
<path d="M10.4254 18.6045V14.576C5.58451 14.576 3.25697 16.03 1.21528 18.7513C0.757239 19.3612 -0.0570616 18.8938 0.00316268 18.0572C0.465448 11.4241 2.89902 5.41804 10.4254 5.41804V1.38956C10.4267 1.21526 10.4678 1.0452 10.5437 0.900143C10.6197 0.755082 10.7272 0.641279 10.8531 0.572616C10.979 0.503953 11.1178 0.483396 11.2527 0.513454C11.3877 0.543511 11.5128 0.622883 11.6129 0.74189L18.7813 9.34936C18.8503 9.43212 18.9054 9.53198 18.943 9.6428C18.9806 9.75363 19 9.87307 19 9.99379C19 10.1145 18.9806 10.234 18.943 10.3448C18.9054 10.4556 18.8503 10.5555 18.7813 10.6382L11.6205 19.2489C11.5209 19.371 11.3953 19.4531 11.2594 19.485C11.1234 19.517 10.9831 19.4975 10.8558 19.4288C10.7285 19.3602 10.6198 19.2455 10.5433 19.0989C10.4668 18.9524 10.4258 18.7805 10.4254 18.6045Z" fill="white"/>
</svg>
