<svg width="31" height="31" viewBox="0 0 31 31" fill="none" xmlns="http://www.w3.org/2000/svg">
<path d="M9.68742 14.2083H5.94159C5.21818 14.2083 4.85648 14.2083 4.58018 14.3491C4.33714 14.473 4.13954 14.6706 4.0157 14.9136C3.87492 15.1899 3.87492 15.5516 3.87492 16.275V27.125M21.3124 14.2083H25.0583C25.7817 14.2083 26.1434 14.2083 26.4197 14.3491C26.6627 14.473 26.8603 14.6706 26.9841 14.9136C27.1249 15.1899 27.1249 15.5516 27.1249 16.275V27.125M21.3124 27.125V8.00833C21.3124 6.56153 21.3124 5.83813 21.0309 5.28552C20.7832 4.79944 20.388 4.40424 19.9019 4.15657C19.3493 3.875 18.6259 3.875 17.1791 3.875H13.8208C12.3739 3.875 11.6505 3.875 11.0979 4.15657C10.6119 4.40424 10.2167 4.79944 9.96899 5.28552C9.68742 5.83813 9.68742 6.56153 9.68742 8.00833V27.125M28.4166 27.125H2.58325M14.2083 9.04167H16.7916M14.2083 14.2083H16.7916M14.2083 19.375H16.7916" stroke="black" stroke-width="2" stroke-linecap="round" stroke-linejoin="round"/>
</svg>
