<svg width="19" height="19" viewBox="0 0 19 19" fill="none" xmlns="http://www.w3.org/2000/svg">
<path d="M18.05 18.9982C17.8176 18.9987 17.5931 18.9384 17.4188 18.8286L9.5 13.7996L1.58116 18.8286C1.44412 18.9156 1.27476 18.9724 1.09351 18.9922C0.912264 19.012 0.726872 18.9939 0.559707 18.9401C0.392543 18.8863 0.250748 18.7991 0.151433 18.689C0.0521176 18.5789 -0.000474159 18.4507 3.22127e-06 18.3197V2.71403C0.00110335 1.99447 0.401813 1.3046 1.11421 0.79579C1.82661 0.28698 2.79252 0.000785736 3.8 0H15.2C16.2075 0.000785736 17.1734 0.28698 17.8858 0.79579C18.5982 1.3046 18.9989 1.99447 19 2.71403V18.3197C19 18.4997 18.8999 18.6723 18.7218 18.7995C18.5436 18.9267 18.302 18.9982 18.05 18.9982Z" fill="black"/>
</svg>
