<svg width="31" height="31" viewBox="0 0 31 31" fill="none" xmlns="http://www.w3.org/2000/svg">
<path d="M25.112 2.34416H17.9368V1.89126C17.9357 1.39002 17.7243 0.909308 17.349 0.554982C16.9735 0.200387 16.4646 0.0008089 15.9334 0H9.45899C8.92754 0 8.4175 0.199039 8.04142 0.553634C7.665 0.90823 7.45304 1.38922 7.45218 1.89129V2.34419H0.280412C0.205187 2.34311 0.132819 2.3712 0.0798989 2.4217C0.0269818 2.47247 -0.00190842 2.54134 9.79547e-05 2.61237V30.7386C9.79547e-05 30.8831 0.123951 31 0.276692 31H25.1118C25.264 30.9981 25.3867 30.8823 25.3887 30.7386V2.61237C25.3896 2.54215 25.361 2.47436 25.3092 2.42413C25.2571 2.3739 25.1862 2.345 25.1118 2.34419L25.112 2.34416ZM8.00585 4.12035V1.89124C8.00671 1.52774 8.16032 1.17962 8.43291 0.923052C8.70522 0.666492 9.07448 0.522273 9.45923 0.522273H15.9337C16.3184 0.522273 16.6871 0.666486 16.9591 0.923322C17.2309 1.17988 17.3836 1.52827 17.3836 1.89124V4.49306C17.3827 4.85576 17.2294 5.20282 16.9577 5.45883C16.686 5.71485 16.3178 5.85852 15.9337 5.85852H9.45927C9.07512 5.85852 8.70644 5.71485 8.43411 5.4591C8.16179 5.20335 8.00763 4.85604 8.00591 4.49305L8.00585 4.12035ZM9.45953 6.38078L15.9337 6.38105C16.4646 6.38105 16.9734 6.18228 17.349 5.82822C17.7245 5.47444 17.9359 4.99429 17.9371 4.49305V4.38152L22.7662 4.38178V28.9627H2.62702V4.38178H7.45243V4.49332V4.49305C7.45443 4.99456 7.66667 5.47473 8.04281 5.8285C8.41895 6.18227 8.9284 6.38105 9.45928 6.38105L9.45953 6.38078ZM24.8354 30.4777H0.557511V2.86656H7.45242V3.85929H2.35036C2.19819 3.86118 2.07548 3.97704 2.07348 4.12044V29.224C2.07548 29.3674 2.19819 29.4833 2.35036 29.4851H23.0431C23.195 29.4833 23.3177 29.3674 23.3197 29.224V4.12044C23.3177 3.97704 23.195 3.86118 23.0431 3.85929H17.9373V2.86656H24.836L24.8354 30.4777Z" fill="black"/>
<path d="M4.96924 9.28964V12.8078C4.97124 12.9512 5.09395 13.0671 5.24583 13.069H8.97205C9.12394 13.0671 9.24665 12.9512 9.24865 12.8078V10.6551L10.9826 9.50569C11.1079 9.42198 11.1377 9.25831 11.049 9.14002C10.9603 9.02173 10.787 8.99364 10.6617 9.07737L9.24866 10.0178V9.28969C9.24666 9.14628 9.12395 9.03042 8.97206 9.02853H5.24584C5.09396 9.03042 4.97124 9.14624 4.96924 9.28964ZM5.52272 9.55079H8.69543V10.3834L7.33388 11.2857L6.43372 10.293C6.38509 10.2419 6.31672 10.2111 6.24408 10.2079C6.17114 10.2047 6.1002 10.229 6.04643 10.2754C5.94403 10.3672 5.93001 10.5163 6.01325 10.6238L7.07934 11.7943C7.13254 11.8515 7.20919 11.8845 7.28986 11.8848C7.34621 11.8853 7.4017 11.8696 7.44833 11.8394L8.69514 11.0103V12.5359L5.53356 12.5361L5.52272 9.55079Z" fill="black"/>
<path d="M12.6946 9.55098H20.1467C20.2997 9.55098 20.4236 9.43404 20.4236 9.28956C20.4236 9.14535 20.2997 9.02841 20.1467 9.02841H12.6946C12.5418 9.02841 12.418 9.14535 12.418 9.28956C12.418 9.43404 12.5418 9.55098 12.6946 9.55098Z" fill="black"/>
<path d="M12.6946 11.3202H20.1467C20.2997 11.3202 20.4236 11.2032 20.4236 11.0588C20.4236 10.9145 20.2997 10.7976 20.1467 10.7976H12.6946C12.5418 10.7976 12.418 10.9145 12.418 11.0588C12.418 11.2032 12.5418 11.3202 12.6946 11.3202Z" fill="black"/>
<path d="M12.6946 13.0617H17.4205C17.5732 13.0617 17.6971 12.9448 17.6971 12.8006C17.6971 12.6564 17.5732 12.5394 17.4205 12.5394H12.6946C12.5418 12.5394 12.418 12.6564 12.418 12.8006C12.418 12.9448 12.5418 13.0617 12.6946 13.0617Z" fill="black"/>
<path d="M10.6617 15.5244L9.24865 16.4648V15.737C9.24665 15.5933 9.12394 15.4774 8.97205 15.4756H5.24583C5.09395 15.4774 4.97124 15.5933 4.96924 15.737V19.2549C4.97124 19.3983 5.09395 19.5144 5.24583 19.516H8.97205C9.12394 19.5144 9.24665 19.3983 9.24865 19.2549V17.1021L10.9826 15.9528C11.1079 15.869 11.1377 15.7054 11.049 15.5871C10.9603 15.4688 10.787 15.4407 10.6617 15.5244ZM8.69543 16.8307L7.33417 17.7327L6.43401 16.74H6.43372C6.38653 16.6873 6.31902 16.6549 6.24637 16.6498C6.17343 16.6444 6.10163 16.6671 6.04643 16.7122C5.93087 16.8062 5.916 16.9704 6.01325 17.0814L7.07934 18.2519C7.13254 18.3091 7.20919 18.3421 7.28986 18.3423C7.34621 18.3429 7.4017 18.3272 7.44833 18.297L8.69514 17.4679V18.9832H5.53356V15.9877H8.70626L8.69543 16.8307Z" fill="black"/>
<path d="M12.6946 15.998H20.1467C20.2997 15.998 20.4236 15.881 20.4236 15.7368C20.4236 15.5923 20.2997 15.4754 20.1467 15.4754H12.6946C12.5418 15.4754 12.418 15.5923 12.418 15.7368C12.418 15.881 12.5418 15.998 12.6946 15.998Z" fill="black"/>
<path d="M12.6946 17.7568H20.1467C20.2997 17.7568 20.4236 17.6399 20.4236 17.4956C20.4236 17.3514 20.2997 17.2345 20.1467 17.2345H12.6946C12.5418 17.2345 12.418 17.3514 12.418 17.4956C12.418 17.6399 12.5418 17.7568 12.6946 17.7568Z" fill="black"/>
<path d="M12.6946 19.5163H17.4205C17.5732 19.5163 17.6971 19.3994 17.6971 19.2552C17.6971 19.111 17.5732 18.994 17.4205 18.994H12.6946C12.5418 18.994 12.418 19.111 12.418 19.2552C12.418 19.3994 12.5418 19.5163 12.6946 19.5163Z" fill="black"/>
<path d="M10.6617 21.9721L9.24865 22.9125V22.1847C9.24665 22.0413 9.12394 21.9254 8.97205 21.9235H5.24583C5.09395 21.9254 4.97124 22.0413 4.96924 22.1847V25.7026C4.97124 25.8462 5.09395 25.9621 5.24583 25.964H8.97205C9.12394 25.9621 9.24665 25.8462 9.24865 25.7026V23.5501L10.9826 22.4007C11.1079 22.317 11.1377 22.1531 11.049 22.0348C10.9603 21.9165 10.787 21.8884 10.6617 21.9721ZM8.69543 23.2784L7.33417 24.1804L6.43401 23.1877H6.43372C6.38596 23.1359 6.31817 23.104 6.24551 23.0994C6.17286 23.0948 6.10106 23.1178 6.04643 23.1634C5.93087 23.2574 5.916 23.4216 6.01325 23.5326L7.07934 24.7031C7.13254 24.7603 7.20919 24.7933 7.28986 24.7935C7.34621 24.7941 7.4017 24.7784 7.44833 24.7484L8.69514 23.9193V25.4449H5.53356V22.4494H8.70626L8.69543 23.2784Z" fill="black"/>
<path d="M12.6946 22.4457H20.1467C20.2997 22.4457 20.4236 22.3287 20.4236 22.1845C20.4236 22.0403 20.2997 21.9234 20.1467 21.9234H12.6946C12.5418 21.9234 12.418 22.0403 12.418 22.1845C12.418 22.3287 12.5418 22.4457 12.6946 22.4457Z" fill="black"/>
<path d="M12.6946 24.208H20.1467C20.2997 24.208 20.4236 24.091 20.4236 23.9468C20.4236 23.8026 20.2997 23.6857 20.1467 23.6857H12.6946C12.5418 23.6857 12.418 23.8026 12.418 23.9468C12.418 24.091 12.5418 24.208 12.6946 24.208Z" fill="black"/>
<path d="M12.6946 25.9495H17.4205C17.5732 25.9495 17.6971 25.8326 17.6971 25.6884C17.6971 25.5442 17.5732 25.4272 17.4205 25.4272H12.6946C12.5418 25.4272 12.418 25.5442 12.418 25.6884C12.418 25.8326 12.5418 25.9495 12.6946 25.9495Z" fill="black"/>
<path d="M12.6944 3.30861C13.0005 3.30969 13.2942 3.19546 13.5107 2.99156C13.7276 2.78766 13.8491 2.51084 13.8491 2.22186C13.8491 1.93316 13.7273 1.65607 13.5107 1.45216C13.2942 1.24825 13.0004 1.13429 12.6944 1.13511C12.3887 1.13619 12.0957 1.25204 11.8804 1.4573C11.6653 1.66227 11.5451 1.94018 11.5471 2.22886C11.5491 2.5154 11.6707 2.78952 11.8855 2.99151C12.1006 3.19379 12.3912 3.3078 12.6944 3.30861ZM12.6944 1.66095V1.66122C12.9361 1.65987 13.1549 1.79598 13.249 2.00636C13.3429 2.21647 13.2934 2.45953 13.1235 2.62184C12.9536 2.78442 12.6967 2.83411 12.473 2.74796C12.2491 2.66207 12.102 2.4571 12.1006 2.22889C12.1026 1.91993 12.3675 1.67013 12.6944 1.66823L12.6944 1.66095Z" fill="black"/>
<path d="M30.7086 12.3828H29.6829V9.75674C29.6829 9.47938 29.5665 9.21363 29.3588 9.0178C29.1514 8.82174 28.8697 8.71155 28.5762 8.71155H27.3294C27.0359 8.71155 26.7544 8.82174 26.5467 9.0178C26.3391 9.2136 26.2227 9.47935 26.2227 9.75674V24.2084C26.2227 24.2462 26.233 24.2835 26.2521 24.3164L27.7278 27.103C27.7727 27.1934 27.8693 27.2507 27.9749 27.2493C28.0802 27.2488 28.1757 27.1921 28.222 27.103L29.6794 24.3164C29.6985 24.2835 29.7085 24.2462 29.7088 24.2084V12.9059H30.4468L30.4465 17.3747C30.4465 17.5192 30.5704 17.6361 30.7234 17.6361C30.8761 17.6361 31 17.5192 31 17.3747V12.6448C31 12.5729 30.9688 12.5044 30.9139 12.4549C30.8587 12.4055 30.7843 12.3796 30.7085 12.3834L30.7086 12.3828ZM27.9492 26.3885L26.9309 24.4694H28.9601L27.9492 26.3885ZM29.1297 23.9504H26.7687V11.411H29.1442L29.1297 23.9504ZM29.1297 10.8884H26.7687L26.7685 9.75653C26.7707 9.4654 27.021 9.23044 27.3294 9.23044H28.5691H28.5688C28.7195 9.22666 28.8654 9.2804 28.9738 9.37924C29.0819 9.47836 29.1434 9.6142 29.1443 9.75652L29.1297 10.8884Z" fill="black"/>
</svg>
