<svg width="29" height="24" viewBox="0 0 29 24" fill="none" xmlns="http://www.w3.org/2000/svg">
<path d="M27.55 5.99978H24.6501V4.49966C24.6501 3.67245 23.9997 2.99954 23.2001 2.99954H15.4668C14.6672 2.99954 14.0168 3.67245 14.0168 4.49966V5.99978H13.0209C13.0358 5.83378 13.0502 5.66779 13.0502 5.49957C13.0502 3.93644 12.4034 2.44172 11.2751 1.39868C10.1483 0.356086 8.63283 -0.141646 7.12161 0.0349992C4.6493 0.322071 2.68145 2.3909 2.4423 4.9542C2.25739 6.93693 3.07742 8.81168 4.63592 9.96918C4.75967 10.061 4.83355 10.2106 4.83355 10.3689V10.8227C4.83355 11.0284 4.71435 11.2108 4.52967 11.2869L2.12693 12.2811C0.834908 12.8158 0 14.0914 0 15.531V23.5C0 23.7762 0.216335 24 0.48328 24H14.9833C15.2503 24 15.4666 23.7762 15.4666 23.5V21.9999H25.1333C26.4659 21.9999 27.5499 20.8782 27.5499 19.4999V14.7878C28.4018 14.401 29 13.5222 29 12.4997V7.49958C29.0002 6.67212 28.3498 5.99946 27.5502 5.99946L27.55 5.99978ZM14.9834 4.49966C14.9834 4.224 15.2003 3.9997 15.4667 3.9997H23.2C23.4664 3.9997 23.6832 4.22399 23.6832 4.49966V5.99978H14.983L14.9834 4.49966ZM14.5002 23.0007H0.966532V15.5316C0.966532 14.5031 1.56301 13.5923 2.48567 13.2104L4.88841 12.2162C5.4422 11.9869 5.79982 11.4403 5.79982 10.8235V10.3697C5.79982 9.88983 5.57533 9.43673 5.19926 9.15738C3.92357 8.21006 3.25272 6.67495 3.40456 5.05103C3.59979 2.95543 5.20841 1.26399 7.22906 1.02954C8.48585 0.884141 9.69535 1.27965 10.6307 2.14486C11.5538 2.99843 12.0832 4.2216 12.0832 5.50017C12.0832 5.81974 12.0446 6.13412 11.9808 6.44126C11.9479 6.60676 11.9016 6.76754 11.8512 6.92658C11.8342 6.97893 11.8215 7.03253 11.8028 7.08414C11.7416 7.2546 11.6682 7.41959 11.5869 7.58063C11.5457 7.66226 11.497 7.73967 11.4509 7.81857C11.3931 7.91732 11.3341 8.01558 11.2687 8.10986C11.225 8.17338 11.1785 8.23466 11.1317 8.29595C11.0367 8.41828 10.9365 8.53713 10.8283 8.65002C10.801 8.6788 10.7751 8.70882 10.747 8.73686C10.6096 8.87655 10.4652 9.00309 10.3095 9.12194C10.2937 9.1341 10.2798 9.14849 10.2637 9.1604C9.88982 9.43706 9.66653 9.8894 9.66653 10.3695V10.8233C9.66653 11.4404 10.0244 11.9869 10.5779 12.2162L12.9807 13.2104C12.9931 13.2157 13.0039 13.2231 13.0162 13.2286C13.1433 13.2834 13.2637 13.3506 13.3786 13.4261C13.4169 13.4511 13.4534 13.4787 13.4901 13.506C13.5908 13.5809 13.6865 13.6623 13.7745 13.7521C13.7923 13.7702 13.8117 13.7863 13.829 13.8049C13.9372 13.9225 14.0348 14.0503 14.1192 14.1883C14.1259 14.1992 14.1314 14.2109 14.1379 14.222C14.2171 14.356 14.2844 14.4982 14.3384 14.6475C14.3439 14.6627 14.3504 14.6776 14.3557 14.693C14.3957 14.8076 14.4248 14.9244 14.448 15.0426C14.4526 15.0669 14.46 15.0899 14.4638 15.1145C14.4864 15.2502 14.4989 15.3877 14.4993 15.5259C14.4996 15.5276 14.5001 15.5296 14.5001 15.5316L14.5002 23.0007ZM26.5835 19.5005C26.5835 20.3277 25.9331 21.0006 25.1335 21.0006H15.4668V15.5304C15.4668 15.5189 15.4644 15.5078 15.4641 15.4964C15.4625 15.3286 15.4519 15.1626 15.4284 15.0004H26.5834L26.5835 19.5005ZM28.0334 12.5001C28.0334 13.3273 27.3829 14.0003 26.5833 14.0003L15.128 14C15.0414 13.8152 14.9352 13.6425 14.8189 13.477C14.7985 13.4477 14.7755 13.4209 14.7541 13.3924C14.6594 13.2658 14.5567 13.1462 14.4454 13.0338C14.4063 12.9941 14.367 12.9557 14.3262 12.918C14.2233 12.8239 14.114 12.7376 13.9996 12.6564C13.9502 12.6212 13.9032 12.5835 13.8518 12.5507C13.7039 12.4572 13.548 12.3741 13.3842 12.3036C13.3688 12.2972 13.3558 12.2867 13.3403 12.2805L10.9402 11.2866C10.7538 11.2084 10.6332 11.0231 10.6332 10.8147V10.3698C10.6332 10.3693 10.6334 10.3688 10.6334 10.3683C10.6334 10.2966 10.6524 10.2286 10.6797 10.1658C10.685 10.1539 10.69 10.1423 10.6962 10.1309C10.7265 10.0745 10.7665 10.0249 10.8162 9.98522C10.8248 9.97777 10.8318 9.96859 10.8411 9.96165C10.9884 9.85173 11.1241 9.73412 11.2553 9.61254C11.3006 9.57086 11.3448 9.52843 11.3887 9.48526C11.4098 9.46417 11.4326 9.44506 11.4532 9.42372C11.4875 9.38923 11.5153 9.34978 11.5484 9.31455C11.6489 9.20686 11.747 9.09769 11.8384 8.98256C11.9086 8.89473 11.9732 8.80367 12.0377 8.71186C12.0945 8.63023 12.1504 8.54835 12.2029 8.46349C12.2739 8.3496 12.3399 8.23349 12.4022 8.11439C12.4418 8.03871 12.479 7.96229 12.515 7.88463C12.5711 7.76405 12.6243 7.64296 12.6716 7.51816C12.7107 7.41593 12.7438 7.31148 12.7769 7.20677C12.7987 7.13705 12.828 7.07056 12.8469 6.99959L14.4999 6.99984H27.5503C27.8168 6.99984 28.0336 7.22414 28.0336 7.4998L28.0334 12.5001Z" fill="black"/>
<path d="M4.35021 14.5005C3.55061 14.5005 2.90015 15.1734 2.90015 16.0006C2.90015 16.8278 3.55061 17.5007 4.35021 17.5007C5.14982 17.5007 5.80028 16.8278 5.80028 16.0006C5.80004 15.1731 5.14957 14.5005 4.35021 14.5005ZM4.35021 16.5005C4.08375 16.5005 3.86693 16.2762 3.86693 16.0006C3.86693 15.7249 4.08375 15.5006 4.35021 15.5006C4.61668 15.5006 4.83349 15.7249 4.83349 16.0006C4.83349 16.276 4.61668 16.5005 4.35021 16.5005Z" fill="black"/>
<path d="M12.0837 15.5002H7.25037C6.98342 15.5002 6.76709 15.724 6.76709 16.0002C6.76709 16.2764 6.98342 16.5002 7.25037 16.5002H12.0837C12.3506 16.5002 12.5669 16.2764 12.5669 16.0002C12.5672 15.724 12.3506 15.5002 12.0837 15.5002Z" fill="black"/>
<path d="M4.35021 18.5002C3.55061 18.5002 2.90015 19.1731 2.90015 20.0003C2.90015 20.8275 3.55061 21.5005 4.35021 21.5005C5.14982 21.5005 5.80028 20.8275 5.80028 20.0003C5.80004 19.1731 5.14957 18.5002 4.35021 18.5002ZM4.35021 20.5003C4.08375 20.5003 3.86693 20.276 3.86693 20.0003C3.86693 19.7247 4.08375 19.5004 4.35021 19.5004C4.61668 19.5004 4.83349 19.7247 4.83349 20.0003C4.83349 20.276 4.61668 20.5003 4.35021 20.5003Z" fill="black"/>
<path d="M12.0837 19.5H7.25037C6.98342 19.5 6.76709 19.7238 6.76709 20C6.76709 20.2761 6.98342 20.4999 7.25037 20.4999H12.0837C12.3506 20.4999 12.5669 20.2761 12.5669 20C12.5672 19.7238 12.3506 19.5 12.0837 19.5Z" fill="black"/>
<path d="M22.2333 10.9999H16.4335C16.1665 10.9999 15.9502 11.2237 15.9502 11.4999C15.9502 11.7761 16.1665 11.9999 16.4335 11.9999H22.2336C22.5005 11.9999 22.7168 11.7761 22.7168 11.4999C22.7168 11.2237 22.5003 10.9999 22.2333 10.9999Z" fill="black"/>
</svg>
