<svg width="33" height="29" viewBox="0 0 33 29" fill="none" xmlns="http://www.w3.org/2000/svg">
<path d="M16.5003 27.625L16.3544 27.4061C15.3414 25.8866 14.8349 25.1268 14.1657 24.5768C13.5732 24.0899 12.8906 23.7246 12.1568 23.5017C11.328 23.25 10.4149 23.25 8.58861 23.25H6.58366C4.95017 23.25 4.13343 23.25 3.50952 22.9321C2.96071 22.6525 2.51452 22.2063 2.23489 21.6575C1.91699 21.0336 1.91699 20.2168 1.91699 18.5833V6.04167C1.91699 4.40818 1.91699 3.59144 2.23489 2.96753C2.51452 2.41872 2.96071 1.97253 3.50952 1.6929C4.13343 1.375 4.95017 1.375 6.58366 1.375H7.16699C10.434 1.375 12.0675 1.375 13.3153 2.0108C14.4129 2.57006 15.3053 3.46244 15.8645 4.56006C16.5003 5.80787 16.5003 7.44136 16.5003 10.7083M16.5003 27.625V10.7083M16.5003 27.625L16.6462 27.4061C17.6593 25.8866 18.1658 25.1268 18.835 24.5768C19.4274 24.0899 20.11 23.7246 20.8438 23.5017C21.6727 23.25 22.5858 23.25 24.412 23.25H26.417C28.0505 23.25 28.8672 23.25 29.4911 22.9321C30.0399 22.6525 30.4861 22.2063 30.7658 21.6575C31.0837 21.0336 31.0837 20.2168 31.0837 18.5833V6.04167C31.0837 4.40818 31.0837 3.59144 30.7658 2.96753C30.4861 2.41872 30.0399 1.97253 29.4911 1.6929C28.8672 1.375 28.0505 1.375 26.417 1.375H25.8337C22.5667 1.375 20.9332 1.375 19.6854 2.0108C18.5878 2.57006 17.6954 3.46244 17.1361 4.56006C16.5003 5.80787 16.5003 7.44136 16.5003 10.7083" stroke="black" stroke-width="2" stroke-linecap="round" stroke-linejoin="round"/>
</svg>
