<svg width="31" height="31" viewBox="0 0 31 31" fill="none" xmlns="http://www.w3.org/2000/svg">
<path d="M27.125 12.9167H3.875M20.6667 2.58334V7.75001M10.3333 2.58334V7.75001M13.5625 18.0833L15.5 16.7917V23.25M13.8854 23.25H17.1146M10.075 28.4167H20.925C23.0952 28.4167 24.1803 28.4167 25.0092 27.9943C25.7383 27.6228 26.3311 27.03 26.7026 26.3009C27.125 25.472 27.125 24.3869 27.125 22.2167V11.3667C27.125 9.19647 27.125 8.11137 26.7026 7.28246C26.3311 6.55334 25.7383 5.96054 25.0092 5.58903C24.1803 5.16668 23.0952 5.16668 20.925 5.16668H10.075C7.9048 5.16668 6.81969 5.16668 5.99079 5.58903C5.26166 5.96054 4.66886 6.55334 4.29735 7.28246C3.875 8.11137 3.875 9.19647 3.875 11.3667V22.2167C3.875 24.3869 3.875 25.472 4.29735 26.3009C4.66886 27.03 5.26166 27.6228 5.99079 27.9943C6.81969 28.4167 7.9048 28.4167 10.075 28.4167Z" stroke="black" stroke-width="2" stroke-linecap="round" stroke-linejoin="round"/>
</svg>
