<svg fill="none" height="18" viewBox="0 0 18 18" width="18" xmlns="http://www.w3.org/2000/svg">
    <path
        d="M9 18C13.9706 18 18 13.9706 18 9C18 4.02944 13.9706 0 9 0C4.02944 0 0 4.02944 0 9C0 13.9706 4.02944 18 9 18Z"
        fill="#F0F0F0" />
    <path
        d="M1.86048 3.52063C1.15353 4.44042 0.620453 5.50056 0.310059 6.65224H4.9921L1.86048 3.52063Z"
        fill="#0052B4" />
    <path
        d="M17.6898 6.65227C17.3794 5.50062 16.8463 4.44048 16.1394 3.52069L13.0078 6.65227H17.6898Z"
        fill="#0052B4" />
    <path
        d="M0.310059 11.3479C0.620488 12.4995 1.15356 13.5597 1.86048 14.4794L4.99199 11.3479H0.310059Z"
        fill="#0052B4" />
    <path
        d="M14.4792 1.86052C13.5594 1.15356 12.4993 0.620488 11.3477 0.310059V4.99206L14.4792 1.86052Z"
        fill="#0052B4" />
    <path d="M3.52051 16.1395C4.4403 16.8465 5.50044 17.3795 6.65209 17.69V13.008L3.52051 16.1395Z"
        fill="#0052B4" />
    <path
        d="M6.65205 0.310059C5.5004 0.620488 4.44027 1.15356 3.52051 1.86048L6.65205 4.99203V0.310059Z"
        fill="#0052B4" />
    <path d="M11.3477 17.69C12.4993 17.3795 13.5594 16.8465 14.4792 16.1395L11.3477 13.008V17.69Z"
        fill="#0052B4" />
    <path
        d="M13.0078 11.3479L16.1394 14.4795C16.8463 13.5597 17.3794 12.4995 17.6898 11.3479H13.0078Z"
        fill="#0052B4" />
    <path
        d="M17.9238 7.8261H10.174H10.1739V0.0761836C9.78964 0.0261563 9.39786 0 9 0C8.60207 0 8.21035 0.0261563 7.8261 0.0761836V7.82603V7.82606H0.0761836C0.0261563 8.21036 0 8.60214 0 9C0 9.39793 0.0261563 9.78964 0.0761836 10.1739H7.82603H7.82606V17.9238C8.21036 17.9738 8.60207 18 9 18C9.39786 18 9.78964 17.9739 10.1739 17.9238V10.174V10.1739H17.9238C17.9738 9.78964 18 9.39793 18 9C18 8.60214 17.9738 8.21035 17.9238 7.8261Z"
        fill="#D80027" />
    <path
        d="M11.3477 11.3479L15.3638 15.364C15.5485 15.1793 15.7247 14.9863 15.8928 14.7862L12.4544 11.3478H11.3477V11.3479Z"
        fill="#D80027" />
    <path
        d="M6.65238 11.3479H6.6523L2.63623 15.364C2.82087 15.5487 3.01391 15.7249 3.21402 15.893L6.65238 12.4546V11.3479Z"
        fill="#D80027" />
    <path
        d="M6.65207 6.6522V6.65213L2.63597 2.63599C2.45125 2.82063 2.27505 3.01367 2.10693 3.21378L5.54532 6.65216H6.65207V6.6522Z"
        fill="#D80027" />
    <path
        d="M11.3477 6.65223L15.3638 2.63605C15.1792 2.45134 14.9861 2.27514 14.786 2.10706L11.3477 5.54544V6.65223Z"
        fill="#D80027" />
</svg>
