<svg width="18" height="18" viewBox="0 0 18 18" fill="none" xmlns="http://www.w3.org/2000/svg">
    <path
        d="M0 8.99999C0 10.5592 0.396668 12.0257 1.09431 13.3043L9 14.087L16.9057 13.3043C17.6033 12.0257 18 10.5592 18 8.99999C18 7.44081 17.6033 5.97431 16.9057 4.69564L9 3.91302L1.09431 4.69564C0.396668 5.97431 0 7.44081 0 8.99999H0Z"
        fill="#D80027" />
    <path
        d="M1.09473 4.69564H16.9061C15.3797 1.89805 12.4118 0 9.00042 0C5.58903 0 2.62118 1.89805 1.09473 4.69564Z"
        fill="#0052B4" />
    <path
        d="M9.00042 18C12.4118 18 15.3797 16.102 16.9061 13.3044H1.09473C2.62118 16.102 5.58903 18 9.00042 18Z"
        fill="#0052B4" />
    <path
        d="M12.1304 10.7609V9.58696H11.3478V8.02173L10.5652 7.23912L9.78256 8.02173V6.4565L8.99995 5.67389L8.21733 6.4565V8.02173L7.43472 7.23912L6.65211 8.02173V9.58696H5.86953V10.7609H5.08691V11.9348H12.913V10.7609H12.1304Z"
        fill="#F0F0F0" />
</svg>
