<svg width="31" height="31" viewBox="0 0 31 31" fill="none" xmlns="http://www.w3.org/2000/svg">
<path d="M15.5 4.22128C15.9776 4.22128 16.3648 3.85581 16.3648 3.4053V0.81598C16.3648 0.365494 15.9776 0 15.5 0C15.0222 0 14.635 0.365467 14.635 0.81598V3.4053C14.635 3.85578 15.0222 4.22128 15.5 4.22128Z" fill="black"/>
<path d="M23.907 7.5069C24.1362 7.50609 24.3557 7.41999 24.5182 7.26749L26.4557 5.43452C26.6191 5.28202 26.7112 5.07446 26.7112 4.85771C26.7112 4.64124 26.6191 4.4334 26.4557 4.28117C26.1166 3.96617 25.5723 3.96617 25.2332 4.28117L23.2958 6.11413V6.1144C23.1324 6.26663 23.0403 6.4742 23.0403 6.69095C23.0403 6.90742 23.1324 7.11525 23.2958 7.26749C23.458 7.41999 23.6778 7.50609 23.907 7.5069Z" fill="black"/>
<path d="M30.1349 13.8059H27.3902C26.9123 13.8059 26.5251 14.1711 26.5251 14.6219C26.5251 15.0724 26.9123 15.4379 27.3902 15.4379H30.1351H30.1349C30.6127 15.4379 30.9999 15.0724 30.9999 14.6219C30.9999 14.1711 30.6127 13.8059 30.1349 13.8059Z" fill="black"/>
<path d="M24.5187 21.9761C24.365 21.796 24.1378 21.6859 23.8935 21.673C23.6488 21.6597 23.4099 21.7453 23.2359 21.9078C23.0619 22.0703 22.9692 22.2948 22.9807 22.5256C22.9921 22.7564 23.1069 22.9718 23.2963 23.1184L25.2337 24.9459C25.3968 25.0976 25.616 25.1835 25.8449 25.1853C26.1894 25.1808 26.4985 24.9837 26.6312 24.6836C26.764 24.3837 26.695 24.0379 26.4561 23.8037L24.5187 21.9761Z" fill="black"/>
<path d="M6.4811 21.9761L4.54366 23.8037C4.29672 24.0371 4.2229 24.3877 4.35652 24.6925C4.49015 24.9972 4.80519 25.1959 5.15482 25.1961C5.38373 25.1942 5.60292 25.1084 5.76602 24.9567L7.70375 23.1184C7.87544 22.9675 7.97473 22.7572 7.97874 22.5359C7.98303 22.3146 7.89146 22.101 7.7255 21.9445C7.55954 21.7879 7.33349 21.7018 7.09885 21.7056C6.86393 21.7094 6.64103 21.8033 6.48108 21.9653L6.4811 21.9761Z" fill="black"/>
<path d="M3.60971 13.8059H0.865032C0.387181 13.8059 0 14.1711 0 14.6219C0 15.0724 0.387151 15.4379 0.865032 15.4379H3.61H3.60972C4.08757 15.4379 4.47475 15.0724 4.47475 14.6219C4.47475 14.1711 4.08759 13.8059 3.60971 13.8059Z" fill="black"/>
<path d="M6.48108 7.26782C6.81872 7.58606 7.36581 7.58606 7.70372 7.26782C7.86711 7.11559 7.95896 6.90776 7.95896 6.69128C7.95896 6.47454 7.86711 6.26698 7.70372 6.11474L5.76628 4.28177L5.766 4.2815C5.42721 3.96651 4.88265 3.96651 4.54357 4.2815C4.38018 4.43373 4.28833 4.64156 4.28833 4.85804C4.28833 5.07478 4.38018 5.28235 4.54357 5.43485L6.48108 7.26782Z" fill="black"/>
<path d="M24.9912 13.8708C24.7285 10.8872 22.9075 8.22288 20.1351 6.76546C17.3624 5.30791 14.0025 5.24883 11.1742 6.60784C8.34586 7.96685 6.4208 10.5651 6.04026 13.5377C5.65969 16.51 6.87379 19.4661 9.27762 21.4211C10.6523 22.5237 11.45 24.1359 11.4632 25.838V26.2189C11.4632 26.6694 11.8503 27.0348 12.3282 27.0348H12.7666V28.4219H12.7663C12.7663 29.3429 13.2873 30.1942 14.1332 30.6546C14.9787 31.1151 16.0206 31.1151 16.8663 30.6546C17.7119 30.1941 18.2329 29.3429 18.2329 28.4219V27.0402H18.6713H18.671C19.1489 27.0402 19.536 26.6748 19.536 26.2243V25.838C19.5652 24.1148 20.3807 22.4876 21.7734 21.3723C24.0548 19.5004 25.2506 16.713 24.991 13.8716L24.9912 13.8708ZM16.5028 28.4271C16.5028 28.9496 16.0535 29.3734 15.4996 29.3734C14.9453 29.3734 14.4961 28.9496 14.4961 28.4271V27.04H16.5028L16.5028 28.4271ZM20.6372 20.1484C18.9858 21.474 17.966 23.3683 17.8061 25.4082H13.1929C13.0536 23.3857 12.0532 21.5026 10.4191 20.1865C8.80588 18.8739 7.83214 16.9955 7.72454 14.9884C7.61695 12.9811 8.38523 11.0198 9.85001 9.56042C11.3151 8.10127 13.3495 7.27099 15.4801 7.26318C17.6107 7.25537 19.6517 8.07025 21.1291 9.51862C22.6061 10.967 23.3907 12.9225 23.3 14.9304C23.2093 16.9383 22.2513 18.8239 20.649 20.1484H20.6372Z" fill="black"/>
</svg>
