<svg width="7" height="10" viewBox="0 0 7 10" fill="none" xmlns="http://www.w3.org/2000/svg">
<path d="M3.5 0C1.56778 0 0 1.43996 0 3.21429C0 6.07143 3.5 10 3.5 10C3.5 10 7 6.07143 7 3.21429C7 1.43996 5.43222 0 3.5 0ZM3.5 5C3.22311 5 2.95243 4.91622 2.7222 4.75924C2.49197 4.60227 2.31253 4.37916 2.20657 4.11812C2.10061 3.85708 2.07288 3.56984 2.1269 3.29273C2.18092 3.01561 2.31426 2.76107 2.51005 2.56128C2.70584 2.36149 2.9553 2.22543 3.22687 2.17031C3.49845 2.11518 3.77994 2.14348 4.03576 2.2516C4.29157 2.35973 4.51022 2.54283 4.66406 2.77776C4.81789 3.01268 4.9 3.28888 4.9 3.57143C4.89959 3.95018 4.75196 4.31331 4.4895 4.58112C4.22704 4.84894 3.87118 4.99959 3.5 5Z" fill="black"/>
</svg>
