<svg width="31" height="31" viewBox="0 0 31 31" fill="none" xmlns="http://www.w3.org/2000/svg">
<path d="M17.8526 9.34455C17.9961 9.34254 18.112 9.21959 18.1139 9.0674V8.56839C18.1139 8.41534 17.9969 8.29095 17.8526 8.29095C17.7083 8.29095 17.5911 8.41534 17.5911 8.56839V9.0674C17.5911 9.22045 17.7083 9.34455 17.8526 9.34455Z" fill="black"/>
<path d="M14.2974 9.34455C14.4411 9.34254 14.557 9.21959 14.5589 9.0674V8.56839C14.5589 8.41534 14.4419 8.29095 14.2974 8.29095C14.1531 8.29095 14.0361 8.41534 14.0361 8.56839V9.0674C14.0361 9.22045 14.1531 9.34455 14.2974 9.34455Z" fill="black"/>
<path d="M16.0122 13.4593C16.7116 13.4565 17.3817 13.1595 17.8756 12.6336C18.3692 12.1079 18.6464 11.396 18.6464 10.6537C18.6464 10.5006 18.5294 10.3765 18.3852 10.3765H13.6321C13.5622 10.3765 13.4952 10.406 13.446 10.4591C13.3968 10.5118 13.3698 10.5832 13.3709 10.6574C13.3717 11.4003 13.6503 12.1123 14.1455 12.6376C14.6404 13.163 15.3119 13.4585 16.0122 13.4593ZM18.1031 10.9308H18.1028C18.0142 11.6608 17.5948 12.2986 16.9797 12.639C16.3647 12.9792 15.6318 12.9792 15.0165 12.639C14.4016 12.2985 13.9823 11.6608 13.8934 10.9308H18.1031Z" fill="black"/>
<path d="M5.15767 28.6859C5.10904 28.7561 5.09472 28.8467 5.1193 28.9298L5.64562 30.8002C5.67912 30.918 5.7807 30.9988 5.89634 31H26.5223C26.6047 31.0006 26.6823 30.9593 26.7315 30.8891C26.7793 30.8171 26.7947 30.7266 26.7731 30.6414L26.2435 28.771C26.2122 28.654 26.1109 28.5738 25.996 28.5749H25.6162L25.4697 21.9208C25.4697 19.6253 24.0759 17.5144 21.7864 16.4129H21.7515H21.7518C21.2598 16.1728 20.7446 15.9905 20.215 15.8695L18.856 14.7606L18.9954 13.6701C20.2058 12.7185 20.9502 11.241 21.0236 9.64457C21.4646 9.58094 21.8688 9.35021 22.1616 8.99481C22.4545 8.6394 22.6158 8.18336 22.6161 7.71135V7.68899C22.6142 7.2863 22.4348 6.90742 22.1316 6.66521C22.0436 6.59356 21.946 6.53623 21.8423 6.49496C21.8944 5.60413 21.8944 2.24016 19.1207 0.805925C16.8347 -0.373192 13.0123 1.48234 12.6429 1.66352C11.2491 2.03325 10.2594 0.166545 10.2489 0.144166C10.2029 0.0550314 10.1149 -0.000292333 10.0189 1.16199e-06C9.9233 0.000574358 9.8355 0.0556044 9.78903 0.144166C9.71229 0.299513 7.87589 3.94067 8.94582 5.8481C9.15953 6.22643 9.48186 6.52165 9.8658 6.69102C9.57103 6.93837 9.40136 7.31641 9.40569 7.7148C9.40596 8.18686 9.56725 8.64283 9.86013 8.99855C10.153 9.35396 10.5572 9.58468 10.9981 9.64831C11.0713 11.2427 11.8143 12.7189 13.0228 13.6701L13.1693 14.8716L11.8135 15.8696C11.2874 15.988 10.7746 16.1654 10.2837 16.3984H10.2489C9.64798 16.6842 9.08736 17.0573 8.5832 17.5073H3.84423C3.76507 17.5062 3.69022 17.5446 3.64213 17.6108C3.59107 17.6756 3.57053 17.7612 3.5862 17.8438L5.70496 28.5644H5.35643V28.5642C5.27646 28.5713 5.20351 28.616 5.15785 28.6863L5.15767 28.6859ZM25.801 29.1295L26.1703 30.4457L6.10246 30.4454L5.71935 29.1296L25.801 29.1295ZM20.2569 16.4351C20.7065 16.5507 21.1442 16.7129 21.5638 16.9192H21.6021C23.665 17.9358 24.944 19.8433 24.944 21.9098L25.0904 28.564L24.2223 28.5637L22.0725 17.7587C22.0463 17.6297 21.939 17.5374 21.8145 17.5368H19.8351L20.2569 16.4351ZM19.783 16.2059L19.2707 17.5366H16.4481L17.0161 16.9379L18.6015 15.256L19.783 16.2059ZM16.0056 17.2225L13.9879 15.1634L13.7056 14.8751V14.8198L13.6151 14.0803L13.664 14.1061C15.138 14.937 16.9047 14.937 18.3786 14.1061L18.4308 14.0803L18.33 14.7605L16.7827 16.4054L16.0056 17.2225ZM21.8145 7.10494C21.989 7.24395 22.0922 7.46149 22.0933 7.69279V7.71486C22.0946 8.05536 21.9782 8.38411 21.7658 8.63922C21.5745 8.86737 21.3192 9.02443 21.0374 9.08635V6.95704H21.386C21.5405 6.95302 21.6918 7.0052 21.8145 7.10494ZM10.981 9.08632C10.6981 9.02728 10.4417 8.86993 10.2526 8.6392C10.0402 8.37609 9.92731 8.03902 9.93569 7.69282C9.9338 7.4578 10.0405 7.23711 10.2213 7.10125C10.3393 7.00609 10.4842 6.95536 10.6325 6.95708H10.981L10.981 9.08632ZM11.2423 6.40246C10.3329 6.40246 9.71604 6.11785 9.4023 5.56321C8.67744 4.26941 9.61844 1.82599 10.0575 0.83889C10.4895 1.48234 11.4619 2.56171 12.7998 2.19227H12.8452C12.8835 2.1702 16.769 0.222037 18.891 1.31978C21.3685 2.60236 21.3791 5.55624 21.3302 6.41757L20.7763 6.41729C20.632 6.41729 20.5148 6.54139 20.5148 6.69473V7.14214V7.14185C20.2638 6.68384 20.1303 6.16363 20.1282 5.63365V5.11258C20.1274 5.02287 20.0857 4.93918 20.0166 4.88788C19.9474 4.83657 19.8593 4.82396 19.7796 4.85377C17.0265 5.82054 14.1521 6.34274 11.2528 6.40262L11.2423 6.40246ZM11.5035 9.38929V6.95364C14.2537 6.86967 16.9795 6.37955 19.6022 5.49703V5.61913C19.6016 6.36805 19.8224 7.09834 20.233 7.70771L20.5119 8.12531V9.38954C20.5456 10.6799 20.0861 11.9295 19.2377 12.855C18.3896 13.7802 17.2246 14.3021 16.008 14.3021C14.7911 14.3021 13.626 13.7802 12.778 12.855C11.9296 11.9295 11.4701 10.6798 11.5038 9.38954L11.5035 9.38929ZM13.4202 15.3598L13.6223 15.563L15.5562 17.5369H12.7512L12.2424 16.2173L13.4202 15.3598ZM10.4128 16.9345H10.4512C10.8713 16.7292 11.309 16.567 11.7581 16.4501L12.1831 17.559L9.4235 17.5593C9.73663 17.3205 10.069 17.1116 10.4164 16.9344L10.4128 16.9345ZM4.16493 18.0878H21.5885L23.6794 28.5715H6.25582L4.16493 18.0878Z" fill="black"/>
<path d="M13.921 25.8507C14.5524 25.8507 15.1576 25.5847 15.604 25.1112C16.0503 24.6378 16.301 23.9954 16.301 23.3259C16.301 22.6561 16.0503 22.0141 15.604 21.5406C15.1576 21.0671 14.5524 20.8011 13.921 20.8011C13.2899 20.8011 12.6844 21.0671 12.2381 21.5406C11.7917 22.0141 11.541 22.6561 11.541 23.3259C11.5429 23.9949 11.7942 24.636 12.2402 25.109C12.686 25.5822 13.2904 25.8487 13.921 25.8507ZM13.921 21.3557V21.3554C14.4138 21.3554 14.8861 21.5632 15.2343 21.9326C15.5826 22.3021 15.7785 22.8031 15.7785 23.3259C15.7785 23.8484 15.5826 24.3493 15.2343 24.7191C14.8861 25.0885 14.4138 25.296 13.921 25.296C13.4285 25.296 12.9562 25.0885 12.6077 24.7191C12.2594 24.3493 12.0638 23.8484 12.0638 23.3259C12.0657 22.8045 12.2621 22.3052 12.6104 21.9372C12.9584 21.5695 13.4299 21.3628 13.921 21.3628V21.3557Z" fill="black"/>
<path d="M24.0546 13.5217C24.1038 13.5739 24.17 13.6031 24.2394 13.6031C24.3083 13.6017 24.3742 13.5724 24.424 13.5217L26.473 11.3443V11.3445C26.5249 11.2932 26.5549 11.2219 26.5562 11.1465C26.5576 11.0714 26.5297 10.9989 26.4798 10.9456C26.4295 10.8926 26.3611 10.863 26.2904 10.8645C26.2193 10.8659 26.152 10.8977 26.1037 10.9527L24.0546 13.1302V13.1299C24.0049 13.1815 23.9768 13.252 23.9768 13.3259C23.9768 13.3996 24.0049 13.4704 24.0546 13.5217Z" fill="black"/>
<path d="M26.1845 16.8081C26.2304 16.8973 26.3185 16.9526 26.4144 16.9523C26.4587 16.9529 26.5022 16.94 26.5398 16.9153L29.0697 15.4146C29.1924 15.3384 29.2351 15.1721 29.1659 15.0403C29.0967 14.9087 28.9409 14.8597 28.8152 14.9302L26.2853 16.4309L26.2855 16.4312C26.1594 16.5057 26.1142 16.6746 26.1845 16.8081Z" fill="black"/>
<path d="M27.3932 20.5862C27.4208 20.7114 27.5261 20.8003 27.6477 20.8005H27.7104L30.5295 20.0834C30.6699 20.0476 30.7564 19.8977 30.7229 19.7487C30.6891 19.5996 30.5481 19.5079 30.4076 19.5437L27.5885 20.2608H27.5883C27.4502 20.2938 27.3629 20.4391 27.3932 20.5862Z" fill="black"/>
<path d="M27.5917 24.571C27.5879 24.6441 27.612 24.7161 27.6587 24.7702C27.7052 24.8244 27.7703 24.8565 27.8392 24.8594L30.7385 24.9815C30.8787 24.9815 30.9941 24.8639 30.9997 24.7152C31.0038 24.5627 30.8925 24.4349 30.7488 24.4269L27.8494 24.3047L27.8497 24.305C27.7119 24.3102 27.6006 24.4254 27.5917 24.571Z" fill="black"/>
<path d="M6.59649 13.5217C6.6462 13.5724 6.71213 13.6017 6.78102 13.6031C6.85046 13.6031 6.91692 13.5739 6.96583 13.5217C7.01554 13.4704 7.04364 13.3996 7.04364 13.3259C7.04364 13.252 7.01554 13.1815 6.96583 13.1299L4.91678 10.9527C4.81384 10.851 4.65336 10.8539 4.55393 10.9593C4.45424 11.0651 4.45153 11.2354 4.54745 11.3446L6.59649 13.5217Z" fill="black"/>
<path d="M1.95105 15.4148L4.481 16.9155C4.51883 16.9401 4.56206 16.953 4.60636 16.9525C4.72714 16.955 4.83359 16.8696 4.86412 16.7458C4.89465 16.622 4.84142 16.4921 4.73524 16.4314L2.20529 14.9307L2.20556 14.9304C2.07992 14.8599 1.92403 14.9089 1.85487 15.0404C1.7857 15.1723 1.82839 15.3385 1.95105 15.4148Z" fill="black"/>
<path d="M0.49167 20.0762L3.31427 20.7933H3.37695C3.50961 20.793 3.62092 20.6872 3.63605 20.5476C3.65119 20.4081 3.56527 20.2785 3.43639 20.2461L0.613794 19.5365C0.473304 19.5006 0.331998 19.5926 0.298224 19.7417C0.264721 19.8907 0.351175 20.0403 0.49167 20.0762Z" fill="black"/>
<path d="M0.271909 24.982L3.17121 24.8599H3.17094C3.24038 24.857 3.30576 24.8249 3.35277 24.771C3.40005 24.7169 3.42491 24.6452 3.42194 24.5715C3.41437 24.4194 3.29387 24.3013 3.15014 24.3056L0.250834 24.4277V24.4274C0.10737 24.4354 -0.00394588 24.5632 0.000107251 24.7157C0.00280908 24.7894 0.0327998 24.8587 0.0838609 24.9086C0.134925 24.9585 0.202466 24.9848 0.271909 24.982Z" fill="black"/>
</svg>
