<svg width="31" height="31" viewBox="0 0 31 31" fill="none" xmlns="http://www.w3.org/2000/svg">
<path d="M30.4838 16.0167H29.9669V14.4667C29.9669 14.3298 29.9126 14.1983 29.8157 14.1013C29.7188 14.0044 29.5875 13.9501 29.4503 13.9501H23.8533C23.431 13.9396 23.0218 14.0967 22.7149 14.3872C22.4083 14.6777 22.2293 15.0779 22.217 15.5002C22.2229 16.035 22.5078 16.5277 22.9682 16.8C22.8177 17.0277 22.7365 17.2938 22.7336 17.5669C22.7349 17.744 22.77 17.9194 22.837 18.0835H22.7336C22.4483 18.0835 22.217 18.3147 22.217 18.6001V20.1501H21.1835V11.3671C21.1825 11.3048 21.1702 11.243 21.1469 11.1851C21.1395 11.1674 21.131 11.1502 21.1215 11.1336C21.1025 11.0964 21.0789 11.0615 21.0513 11.0302C21.0387 11.0146 21.0248 11.0002 21.01 10.9867C20.9769 10.9577 20.94 10.9328 20.9005 10.9128C20.8864 10.9041 20.8715 10.8959 20.8567 10.8887C20.852 10.8887 20.8485 10.8831 20.8438 10.8815L15.1603 8.81489V8.81463C15.0019 8.75721 14.8253 8.78028 14.6871 8.87719C14.5491 8.97385 14.4668 9.13178 14.4668 9.30047V10.8505L13.9502 10.8503C13.6649 10.8503 13.4336 11.0818 13.4336 11.3671V17.5672H13.0388L7.23354 14.6644V13.4338C7.91837 13.4328 8.57497 13.1605 9.05921 12.6762C9.54352 12.1919 9.81604 11.5353 9.81682 10.8503V4.13339C9.81682 3.97828 9.74709 3.83137 9.62685 3.73318C9.50686 3.63499 9.34893 3.59602 9.19689 3.62704L5.69369 4.32774C5.10862 4.44593 4.58224 4.76281 4.20387 5.22428C3.82549 5.68576 3.61803 6.26417 3.61675 6.86104V8.26677H3.10014C2.54636 8.26677 2.03464 8.56237 1.75773 9.04183C1.48084 9.52151 1.48084 10.1122 1.75773 10.5919C2.03463 11.0713 2.54639 11.3669 3.10014 11.3669H3.61675V14.9878C2.96734 15.4746 2.58479 16.2384 2.58354 17.0501C1.89846 17.0511 1.24192 17.3234 0.757611 17.8077C0.273299 18.292 0.00105014 18.9486 0 19.6336V30.9999H10.8499C10.9871 30.9999 11.1186 30.9453 11.2153 30.8487C11.3122 30.7518 11.3668 30.6202 11.3668 30.4833V28.9333H12.4V30.9999H13.4332L13.4335 28.4167C13.4335 28.2795 13.3789 28.1483 13.2819 28.0513C13.185 27.9544 13.0538 27.8998 12.9166 27.8998H6.19963V26.35H14.4662V31H15.4994L15.4997 23.25H28.9329V31H29.9662V23.25H30.483C30.6199 23.25 30.7514 23.1957 30.8484 23.0988C30.945 23.0019 30.9996 22.8703 30.9996 22.7334V20.6668C30.9996 20.5299 30.945 20.3984 30.8484 20.3015C30.7514 20.2045 30.6199 20.1502 30.483 20.1502H29.871C29.9979 19.8174 29.9979 19.4495 29.871 19.1167H30.483C30.6199 19.1167 30.7514 19.0624 30.8484 18.9655C30.945 18.8686 30.9996 18.7373 30.9996 18.6001V16.5335C30.9996 16.3966 30.945 16.2651 30.8484 16.1681C30.7514 16.0712 30.6199 16.0169 30.483 16.0169L30.4838 16.0167ZM23.8535 14.9833H28.9339V16.0165L23.8535 16.0167C23.7025 16.0401 23.5489 15.9965 23.433 15.897C23.3171 15.7978 23.2502 15.6527 23.2502 15.5001C23.2502 15.3473 23.3171 15.2022 23.433 15.103C23.5489 15.0035 23.7025 14.96 23.8535 14.9833ZM19.1171 18.6H20.1503V20.15H19.1171V18.6ZM15.5005 10.0382L17.7346 10.8501H15.5005V10.0382ZM14.4671 11.8836H20.1506V17.567H14.4671V11.8836ZM4.65022 13.4336H6.20029V14.4668H5.16682C4.99325 14.4666 4.82019 14.4837 4.65021 14.5186L4.65022 13.4336ZM8.78364 10.8504V10.8501C8.78364 11.2613 8.62032 11.6556 8.32958 11.9461C8.03884 12.2369 7.6445 12.4002 7.23356 12.4002H4.65028V8.6906L8.7837 7.86401L8.78364 10.8504ZM4.65022 6.86113C4.65098 6.50297 4.77559 6.15611 5.00274 5.8792C5.22964 5.60231 5.54524 5.41208 5.89621 5.34106L8.78358 4.76395V6.80986L4.65016 7.63644L4.65022 6.86113ZM3.10014 10.3335C2.81478 10.3335 2.58353 10.1023 2.58353 9.81691C2.58353 9.53156 2.81478 9.30031 3.10014 9.30031H3.61675V10.3335L3.10014 10.3335ZM10.3336 28.9332V29.9664H1.03333V28.9332H10.3336ZM1.03333 27.8998V19.6333C1.03333 19.2221 1.19665 18.8278 1.48739 18.5373C1.77787 18.2466 2.17221 18.0833 2.58341 18.0833H3.61661C4.02785 18.0833 4.42194 18.2466 4.71263 18.5373C5.00337 18.8278 5.16669 19.2221 5.16669 19.6333V27.8998H1.03333ZM6.19996 25.3165V19.6334C6.19919 18.9483 5.92691 18.2918 5.44261 17.8075C4.95831 17.3232 4.3017 17.0509 3.61668 17.0499C3.6177 16.4971 3.91306 15.9867 4.39175 15.7103C4.62685 15.5726 4.89425 15.5001 5.16682 15.5001H6.59488L12.686 18.5484C12.7578 18.583 12.837 18.6007 12.9168 18.5999H18.0837V20.15H13.0388L9.01444 18.1351V18.1349C8.85395 18.0546 8.6632 18.0636 8.51065 18.1584C8.3581 18.2533 8.2658 18.4205 8.26683 18.5999V25.3168L6.19996 25.3165ZM14.4665 25.3165H9.29991V19.436L12.6857 21.1317C12.7575 21.1665 12.8367 21.1842 12.9164 21.1832H13.433V22.7332H13.4333C13.4333 22.8701 13.4877 23.0017 13.5846 23.0986C13.6815 23.1955 13.8128 23.2498 13.9499 23.2498H14.4665L14.4665 25.3165ZM29.9666 22.2167H14.4665V21.1832H29.9666V22.2167ZM28.9334 19.6334C28.9334 19.7704 28.8788 19.9019 28.7821 19.9988C28.6852 20.0954 28.5537 20.1501 28.4168 20.1501H23.2499V19.1166H28.4168C28.5537 19.1166 28.6852 19.1712 28.7821 19.2681C28.8788 19.3648 28.9334 19.4963 28.9334 19.6334ZM29.9666 18.0834H24.4554C24.0819 18.0834 23.7665 17.8468 23.7665 17.5668C23.7665 17.2868 24.0816 17.0502 24.4552 17.0502L29.9666 17.0499V18.0834Z" fill="black"/>
<path d="M16.0168 12.9169H18.6001V13.9501H16.0168V12.9169Z" fill="black"/>
<path d="M15.5002 14.983H19.117V16.0162H15.5002V14.983Z" fill="black"/>
<path d="M2.06641 19.6338H4.13308V20.667H2.06641V19.6338Z" fill="black"/>
<path d="M2.06641 21.6999H4.13308V22.7331H2.06641V21.6999Z" fill="black"/>
<path d="M2.06641 23.7667H4.13308V24.7999H2.06641V23.7667Z" fill="black"/>
<path d="M2.06641 25.8335H4.13308V26.8667H2.06641V25.8335Z" fill="black"/>
<path d="M29.9667 6.20002V0.51686C29.9667 0.3797 29.9124 0.248434 29.8154 0.15152C29.7185 0.0546062 29.5873 0 29.4501 0H27.3834C27.0981 0 26.8668 0.231507 26.8668 0.51686V6.20002H24.2317L25.166 5.2658V5.26606C25.3675 5.06429 25.3675 4.73715 25.166 4.53536L20.7813 0.15154C20.5765 -0.0422808 20.2557 -0.0422808 20.0509 0.15154L19.1166 1.08504V0.516906C19.1166 0.379746 19.0623 0.24848 18.9654 0.151566C18.8685 0.0546523 18.7372 4.60681e-05 18.6 4.60681e-05H12.3999C12.1146 4.60681e-05 11.8833 0.231553 11.8833 0.516906V6.20007H10.8499V7.23326L31.0001 7.23352V6.20006L29.9667 6.20002ZM20.4163 1.24729L24.0698 4.90068L23.3391 5.6319L19.6851 1.97851L20.4163 1.24729ZM22.4461 6.20002H19.1167V2.87066L22.4461 6.20002ZM12.9168 1.03346H13.95L13.9502 6.20002H12.9167L12.9168 1.03346ZM14.9834 1.03346H16.0166L16.0169 6.20002H14.9834L14.9834 1.03346ZM17.0501 6.20002V1.03346H18.0833L18.0836 6.20002H17.0501ZM27.9 6.20002V1.03346H28.9332L28.9335 6.20002H27.9Z" fill="black"/>
</svg>
