<svg width="31" height="31" viewBox="0 0 31 31" fill="none" xmlns="http://www.w3.org/2000/svg">
<path d="M10.9791 18.9445C10.9791 20.609 12.3284 21.9583 13.993 21.9583H16.7916C18.575 21.9583 20.0208 20.5126 20.0208 18.7292C20.0208 16.9458 18.575 15.5 16.7916 15.5H14.2083C12.4248 15.5 10.9791 14.0543 10.9791 12.2708C10.9791 10.4874 12.4248 9.04168 14.2083 9.04168H17.0069C18.6714 9.04168 20.0208 10.391 20.0208 12.0556M15.4999 7.10418V9.04168M15.4999 21.9583V23.8958M28.4166 15.5C28.4166 22.6337 22.6336 28.4167 15.4999 28.4167C8.36624 28.4167 2.58325 22.6337 2.58325 15.5C2.58325 8.36633 8.36624 2.58334 15.4999 2.58334C22.6336 2.58334 28.4166 8.36633 28.4166 15.5Z" stroke="black" stroke-width="2" stroke-linecap="round" stroke-linejoin="round"/>
</svg>
